HIERARCHY
ROOT Pelvis
{
	OFFSET 0.000000 0.000000 0.000000
	CHANNELS 6 Xposition Yposition Zposition Xrotation Yrotation Zrotation
	JOINT LeftUpLeg_virtual
	{
		OFFSET 0.000000 0.000000 0.000000
		CHANNELS 3 Xrotation Yrotation Zrotation
		JOINT LeftUpLeg
		{
			OFFSET 18.735201 -5.666702 -4.541200
			CHANNELS 3 Xrotation Yrotation Zrotation
			JOINT LeftLeg
			{
				OFFSET -0.021200 -31.938179 0.493100
				CHANNELS 3 Xrotation Yrotation Zrotation
				JOINT LeftFoot
				{
					OFFSET 0.021200 -31.938179 -4.336299
					CHANNELS 3 Xrotation Yrotation Zrotation
					JOINT LeftToeBase
					{
						OFFSET 0.943001 -26.722000 15.023500
						CHANNELS 3 Xrotation Yrotation Zrotation
						End Site
						{
							OFFSET 0 0 0
						}
					}
				}
			}
		}
	}
	JOINT RightUpLeg_virtual
	{
		OFFSET 0.000000 0.000000 0.000000
		CHANNELS 3 Xrotation Yrotation Zrotation
		JOINT RightUpLeg
		{
			OFFSET -18.735201 -5.666702 -4.541200
			CHANNELS 3 Xrotation Yrotation Zrotation
			JOINT RightLeg
			{
				OFFSET 0.018946 -31.938133 0.493100
				CHANNELS 3 Xrotation Yrotation Zrotation
				JOINT RightFoot
				{
					OFFSET -0.018946 -31.938126 -4.336299
					CHANNELS 3 Xrotation Yrotation Zrotation
					JOINT RightToeBase
					{
						OFFSET -0.943001 -26.722004 15.023500
						CHANNELS 3 Xrotation Yrotation Zrotation
						End Site
						{
							OFFSET 0 0 0
						}
					}
				}
			}
		}
	}
	JOINT Hips_virtual
	{
		OFFSET 0.000000 0.000000 0.000000
		CHANNELS 3 Xrotation Yrotation Zrotation
		JOINT Hips
		{
			OFFSET -0.000000 -0.000000 -0.000000
			CHANNELS 3 Xrotation Yrotation Zrotation
			JOINT Spine
			{
				OFFSET 0.000000 10.199997 -0.299500
				CHANNELS 3 Xrotation Yrotation Zrotation
				JOINT Spine1
				{
					OFFSET 0.000000 11.900002 -1.516600
					CHANNELS 3 Xrotation Yrotation Zrotation
					JOINT Spine2
					{
						OFFSET 0.000000 13.600006 -2.842500
						CHANNELS 3 Xrotation Yrotation Zrotation
						JOINT Neck_virtual
						{
							OFFSET 0.000000 0.000000 0.000000
							CHANNELS 3 Xrotation Yrotation Zrotation
							JOINT Neck
							{
								OFFSET 0.000000 9.624100 -2.890100
								CHANNELS 3 Xrotation Yrotation Zrotation
								JOINT Head
								{
									OFFSET 0.000000 14.068802 -1.351900
									CHANNELS 3 Xrotation Yrotation Zrotation
									End Site
									{
										OFFSET 0 0 0
									}
								}
							}
						}
						JOINT LeftShoulder_virtual
						{
							OFFSET 0.000000 0.000000 0.000000
							CHANNELS 3 Xrotation Yrotation Zrotation
							JOINT LeftShoulder
							{
								OFFSET 15.263000 10.923401 -0.547700
								CHANNELS 3 Xrotation Yrotation Zrotation
								JOINT LeftArm
								{
									OFFSET 25.438599 -2.830597 -13.032500
									CHANNELS 3 Xrotation Yrotation Zrotation
									JOINT LeftForeArm
									{
										OFFSET 29.960503 0.000000 0.000000
										CHANNELS 3 Xrotation Yrotation Zrotation
										JOINT LeftHand
										{
											OFFSET 27.849251 0.000000 0.000000
											CHANNELS 3 Xrotation Yrotation Zrotation
											End Site
											{
												OFFSET 0 0 0
											}
										}
									}
								}
							}
						}
						JOINT RightShoulder_virtual
						{
							OFFSET 0.000000 0.000000 0.000000
							CHANNELS 3 Xrotation Yrotation Zrotation
							JOINT RightShoulder
							{
								OFFSET -15.263000 10.923401 -0.547700
								CHANNELS 3 Xrotation Yrotation Zrotation
								JOINT RightArm
								{
									OFFSET -25.438599 -2.830597 -13.032500
									CHANNELS 3 Xrotation Yrotation Zrotation
									JOINT RightForeArm
									{
										OFFSET -29.960503 0.000000 0.000000
										CHANNELS 3 Xrotation Yrotation Zrotation
										JOINT RightHand
										{
											OFFSET -27.849251 0.000000 0.000000
											CHANNELS 3 Xrotation Yrotation Zrotation
											End Site
											{
												OFFSET 0 0 0
											}
										}
									}
								}
							}
						}
					}
				}
			}
		}
	}
}
MOTION
Frames: 9
Frame Time: 0.03333333
-1.164769 78.157524 3.367390 0.000000 0.000000 0.000000 18.898281 -40.754858 18.141288 -76.172906 18.494177 39.801418 53.974675 -14.647686 3.908469 3.585711 5.822106 -11.304888 0.000000 0.000000 0.000000 18.241834 -39.280828 16.614049 -35.674683 6.377742 -37.805377 37.422203 8.272470 -3.533230 -17.516300 -5.546993 31.643781 0.000000 0.000000 0.000000 19.958204 -40.485711 19.230270 0.204269 -2.470064 -2.480329 4.943954 6.581586 1.817980 0.703621 2.980690 -5.291482 0.000000 0.000000 0.000000 -7.184269 4.685843 -4.852861 -6.861869 -2.942296 0.913053 0.000000 0.000000 0.000000 -9.272130 5.720641 -4.613081 -1.442186 -1.427742 4.128565 -3.459456 -16.652918 -41.329085 1.963407 -35.780339 -5.509041 0.000000 0.000000 0.000000 -4.664388 5.306994 -5.204661 -1.011760 12.627108 7.347842 7.576868 -16.026076 61.122536 -41.333218 52.594485 42.604288 0.000000 0.000000 0.000000 
-1.755567 77.880722 4.121620 0.000000 0.000000 0.000000 19.420741 -40.441424 18.524168 -76.825339 18.112395 40.642866 55.438603 -15.184463 4.125047 1.964514 5.942114 -11.682807 0.000000 0.000000 0.000000 19.412752 -38.760934 17.104720 -35.561240 5.519366 -37.343352 36.751209 7.811564 -3.797183 -21.770075 -6.799685 29.739573 0.000000 0.000000 0.000000 20.666327 -40.444764 19.843832 0.123836 -2.183188 -2.423216 5.209208 5.533977 1.846450 1.089807 1.953717 -4.817613 0.000000 0.000000 0.000000 -6.650837 3.748490 -4.325024 -6.364334 -2.758636 0.912537 0.000000 0.000000 0.000000 -9.226885 4.825790 -4.126619 -1.795449 -0.878700 5.377748 -1.008393 -11.371173 -40.181846 1.673942 -33.724035 -6.579770 0.000000 0.000000 0.000000 -4.472210 4.256832 -4.763582 -0.958783 10.165570 7.867347 6.626086 -17.206191 58.081777 -50.768530 58.167318 51.999801 0.000000 0.000000 0.000000 
-3.033142 77.101700 4.702999 0.000000 0.000000 0.000000 20.705362 -39.604002 19.997640 -77.762551 18.325903 41.465272 56.739242 -15.880014 4.320560 -0.851941 6.851992 -11.937655 0.000000 0.000000 0.000000 21.420592 -37.972689 18.860510 -34.620016 4.367774 -37.743711 36.226179 7.790241 -4.267500 -29.324611 -8.723244 29.704503 0.000000 0.000000 0.000000 21.691859 -39.853362 21.173404 -0.223804 -1.980801 -2.392745 6.517906 3.080749 1.834533 2.461157 -0.632366 -3.792656 0.000000 0.000000 0.000000 -5.363542 1.240026 -3.296915 -5.552093 -2.176888 0.997740 0.000000 0.000000 0.000000 -8.011948 2.129117 -3.234115 -1.297137 -1.896146 6.409855 -0.838411 -1.710488 -39.147048 1.820648 -31.741583 -7.208675 0.000000 0.000000 0.000000 -3.608990 1.664456 -3.768064 -1.045201 8.805058 10.893873 3.159857 -16.997139 51.044749 -73.438583 64.694800 75.289995 0.000000 0.000000 0.000000 
-4.813566 75.929741 5.323040 0.000000 0.000000 0.000000 22.363067 -38.212999 22.197683 -78.709242 19.365907 42.401944 56.936529 -16.963301 4.289488 -3.593549 7.878754 -12.885730 0.000000 0.000000 0.000000 23.449090 -36.594569 21.275725 -33.478001 3.403581 -39.093189 37.036212 8.376800 -4.925321 -37.136234 -10.753669 31.417999 0.000000 0.000000 0.000000 22.836025 -38.768731 22.891131 -0.501716 -1.546687 -2.164105 8.986412 -0.288898 2.017528 4.874512 -4.150948 -2.487569 0.000000 0.000000 0.000000 -3.173105 -2.159658 -2.064478 -4.566400 -1.315426 1.131773 0.000000 0.000000 0.000000 -5.526829 -1.620905 -2.138396 0.014899 -4.521637 7.326034 -3.864388 8.806883 -37.334456 2.281758 -30.601242 -7.436507 0.000000 0.000000 0.000000 -1.769758 -1.795311 -2.495311 -1.143784 8.634300 14.961439 -1.977693 -14.992731 41.785506 -101.037909 66.039111 104.122880 0.000000 0.000000 0.000000 
-6.865076 74.622467 5.974201 0.000000 0.000000 0.000000 23.850785 -36.515660 24.516621 -79.536139 21.209792 43.749578 55.808226 -18.372454 3.811062 -4.411100 8.773854 -14.709530 0.000000 0.000000 0.000000 24.728054 -34.792205 23.610811 -32.917257 2.608079 -41.322699 40.134127 8.935876 -5.638014 -44.006854 -12.855847 33.014208 0.000000 0.000000 0.000000 23.822762 -37.441854 24.640386 -0.295022 -1.193203 -1.853061 12.478690 -3.924669 2.684137 8.190018 -7.774000 -1.199464 0.000000 0.000000 0.000000 0.021840 -5.666868 -0.957342 -3.562919 -0.299632 1.228344 0.000000 0.000000 0.000000 -1.883585 -5.387098 -1.105981 1.905127 -8.128066 8.353434 -10.241372 16.809695 -33.641844 3.018333 -29.488129 -7.241752 0.000000 0.000000 0.000000 0.925156 -5.281602 -1.337302 -1.225311 9.036654 18.573286 -7.176915 -10.978668 33.992147 -115.707912 64.842053 120.126922 0.000000 0.000000 0.000000 
-9.108334 73.500183 6.434269 0.000000 0.000000 0.000000 24.571145 -34.851050 26.287808 -80.082602 23.635584 45.559715 53.866806 -19.874141 3.033344 -3.302839 9.492019 -16.820973 0.000000 0.000000 0.000000 25.050052 -33.207519 25.406816 -33.001005 1.834219 -43.933122 45.331170 8.747610 -6.195060 -50.149100 -14.826749 32.847899 0.000000 0.000000 0.000000 24.578178 -36.215271 26.177651 -0.198691 -1.379022 -1.654777 16.341303 -7.027461 3.731218 11.913936 -10.547674 -0.294847 0.000000 0.000000 0.000000 3.886312 -8.382645 -0.401186 -2.673143 0.759050 1.253664 0.000000 0.000000 0.000000 2.492357 -8.250762 -0.456948 4.007702 -12.128831 9.554921 -18.606591 18.474777 -29.338319 3.822174 -27.643849 -6.765648 0.000000 0.000000 0.000000 4.414684 -7.973252 -0.603642 -1.183395 9.645717 20.592117 -11.362780 -6.535355 30.785555 -116.748765 65.854293 122.269662 0.000000 0.000000 0.000000 
-11.412009 72.724808 6.965023 0.000000 0.000000 0.000000 24.627260 -34.414837 27.508102 -79.548051 26.042897 47.002801 51.526951 -21.602244 2.485800 -1.013046 9.771617 -18.884797 0.000000 0.000000 0.000000 24.925175 -32.840014 26.731962 -33.344751 1.261102 -46.166584 51.381539 8.034246 -6.461428 -54.756390 -16.142628 31.758597 0.000000 0.000000 0.000000 25.001122 -36.120007 27.534098 -0.166514 -1.616368 -1.302180 19.996709 -9.225240 4.911753 15.693418 -12.132953 -0.078375 0.000000 0.000000 0.000000 7.936061 -9.954360 -0.585449 -1.955597 1.779411 1.203988 0.000000 0.000000 0.000000 7.085458 -9.816537 -0.493744 5.901680 -15.927409 10.672327 -28.254396 13.050387 -26.092555 4.514373 -25.006934 -6.113441 0.000000 0.000000 0.000000 8.429405 -9.438514 -0.535208 -0.939492 10.168290 20.785753 -13.932931 -3.194837 32.051008 -108.953627 68.805550 115.089466 0.000000 0.000000 0.000000 
-13.547832 72.371254 7.231503 0.000000 0.000000 0.000000 24.223192 -35.884045 28.286038 -77.298576 28.180727 47.489107 49.120839 -23.637955 2.353923 1.590273 9.563522 -20.723598 0.000000 0.000000 0.000000 24.537576 -34.403530 27.619034 -33.707991 1.416841 -47.577759 56.764036 7.417219 -6.668934 -56.309961 -16.417451 31.497107 0.000000 0.000000 0.000000 25.053460 -37.605509 28.717165 -0.311178 -1.650953 -1.096625 22.969959 -10.280239 5.867069 19.116308 -12.392923 -0.619166 0.000000 0.000000 0.000000 11.784579 -10.348863 -1.513093 -1.479183 2.719078 1.067549 0.000000 0.000000 0.000000 11.421170 -10.011663 -1.280636 7.193618 -19.189572 11.651030 -37.256862 1.972122 -26.040694 4.771702 -23.513228 -5.423524 0.000000 0.000000 0.000000 12.380571 -9.635243 -1.158063 -0.571706 10.319641 19.465996 -14.505573 -2.017399 35.406574 -96.394808 71.457248 102.306924 0.000000 0.000000 0.000000 
-15.284741 72.444908 7.273579 0.000000 0.000000 0.000000 23.416933 -38.955820 28.741747 -73.482174 30.070748 46.989116 46.641531 -25.721000 2.410548 3.231884 8.978574 -22.164444 0.000000 0.000000 0.000000 23.835241 -37.328562 28.070107 -33.818288 2.572377 -48.260477 60.501508 7.169119 -7.057168 -55.032176 -15.825859 32.356850 0.000000 0.000000 0.000000 24.741872 -40.431967 29.677199 -0.226151 -1.336577 -0.985954 24.753275 -10.281636 6.357746 22.018303 -11.521242 -1.607907 0.000000 0.000000 0.000000 15.070770 -9.685420 -2.853141 -1.193579 3.480532 0.923353 0.000000 0.000000 0.000000 15.146904 -9.181153 -2.466084 7.757882 -21.978844 12.287345 -44.561964 -11.199765 -29.133619 4.310052 -24.197981 -4.759387 0.000000 0.000000 0.000000 15.984967 -8.787231 -2.175950 -0.148186 10.092381 17.290001 -13.270959 -3.836221 38.196474 -86.463187 73.068332 91.428817 0.000000 0.000000 0.000000 
